<svg width="216" height="72" viewBox="0 0 216 72" fill="none" xmlns="http://www.w3.org/2000/svg">
<path d="M11.4487 28.4338C15.6816 21.6029 21.7633 17.0001 23.6502 17.6776C26.9337 18.8605 18.2966 36.3602 26.5364 43.988C29.6415 46.8637 34.0672 47.3345 38.4643 47.0773C31.6663 47.5895 20.6997 49.8978 14.7798 43.988C10.7301 39.9456 10.7634 33.7831 11.451 28.4315L11.4487 28.4338Z" fill="url(#paint0_linear_10526_12)"/>
<path d="M48.6769 43.5172C44.4439 50.348 38.3622 54.9509 36.4754 54.2733C33.1918 53.0905 41.829 35.5908 33.5892 27.9629C30.4841 25.0873 26.0584 24.6164 21.6613 24.8737C28.4592 24.3615 39.4258 22.0532 45.3457 27.9629C49.3954 32.0054 49.3621 38.1678 48.6745 43.5195L48.6769 43.5172Z" fill="url(#paint1_linear_10526_12)"/>
<path d="M11.4487 28.4338C10.7635 33.7855 10.7278 39.9479 14.7775 43.9904C20.6998 49.9002 31.6641 47.5919 38.462 47.0797C38.4691 47.0797 38.4787 47.0797 38.4858 47.0774C38.6952 47.0659 38.9022 47.0521 39.1116 47.036C39.1211 47.036 39.133 47.036 39.1401 47.0337C45.969 46.5192 52.5695 44.4475 53.8948 47.0843C55.6198 50.5181 47.4442 60.0041 37.0058 62.356C33.3463 63.1806 29.3846 63.1347 25.5776 62.3009C18.4156 60.7322 11.8032 56.3704 8.78855 49.7693C5.38839 42.3252 7.68689 34.5021 11.4463 28.4361L11.4487 28.4338Z" fill="url(#paint2_linear_10526_12)"/>
<path d="M48.6768 43.5171C49.3621 38.1654 49.3978 32.003 45.348 27.9605C39.4257 22.0507 28.4615 24.359 21.6635 24.8712C21.6564 24.8712 21.6469 24.8713 21.6397 24.8735C21.4303 24.885 21.2233 24.8988 21.0139 24.9149C21.0044 24.9149 20.9925 24.9149 20.9854 24.9172C14.1565 25.4317 7.55607 27.5034 6.23075 24.8667C4.50569 21.4329 12.6813 11.9469 23.1197 9.59487C26.7792 8.7703 30.7409 8.81624 34.548 9.65C41.7099 11.2187 48.3223 15.5805 51.337 22.1816C54.7371 29.6257 52.4386 37.4488 48.6792 43.5148L48.6768 43.5171Z" fill="url(#paint3_linear_10526_12)"/>
<path d="M72.7011 24.1111C73.6546 24.6802 74.3489 25.4087 74.7822 26.2949C75.2155 27.1829 75.4322 28.1274 75.4322 29.1319C75.4322 30.1363 75.2155 31.0483 74.7822 31.9191C74.3489 32.7899 73.6546 33.5046 72.7011 34.0652C71.7475 34.6257 70.5329 34.9068 69.059 34.9068H65.3139V40.8326H62.6876V23.2575H69.0608C70.5346 23.2575 71.7475 23.542 72.7028 24.1111H72.7011ZM71.6338 31.8951C72.4311 31.3602 72.8307 30.438 72.8307 29.1336C72.8307 27.8291 72.4311 26.912 71.6338 26.3841C70.8365 25.8561 69.8563 25.5939 68.695 25.5939H65.3139V32.699H68.695C69.8563 32.699 70.8365 32.4316 71.6338 31.8951Z" fill="black"/>
<path d="M76.8615 27.6012H79.5411V29.7096H79.6974C79.9229 29.1234 80.326 28.6263 80.9067 28.2166C81.4873 27.8069 82.2367 27.6012 83.1565 27.6012C83.3998 27.6012 83.6076 27.6098 83.7816 27.6269C83.9538 27.6441 84.1279 27.6852 84.3019 27.7521L84.1971 30.2136C83.7283 30.0799 83.2436 30.013 82.741 30.013C81.7182 30.013 80.928 30.2941 80.3739 30.8547C79.8181 31.4152 79.5411 32.3408 79.5411 33.6299V40.8361H76.8615V27.6046V27.6012Z" fill="black"/>
<path d="M86.875 40.1298C86.0244 39.5435 85.3798 38.7327 84.9377 37.694C84.4955 36.6569 84.2735 35.4759 84.2735 34.1542C84.2735 32.8326 84.4991 31.6276 84.9501 30.5888C85.4011 29.5518 86.0564 28.7358 86.9141 28.141C87.7718 27.5479 88.7999 27.2497 89.9968 27.2497C91.1936 27.2497 92.1472 27.5171 92.8575 28.0536C93.5678 28.5901 94.1059 29.2089 94.4699 29.9117H94.651V27.6011H97.3555V40.8326H94.651V38.2716H94.4699C94.0881 39.0087 93.5341 39.6481 92.806 40.1932C92.0779 40.7383 91.1155 41.0091 89.9186 41.0091C88.7218 41.0091 87.7256 40.716 86.875 40.1298ZM93.6513 37.4814C94.3012 36.5695 94.6261 35.4519 94.6261 34.1302C94.6261 32.8086 94.3012 31.6944 93.6513 30.7911C93.0013 29.8877 92.0602 29.4352 90.8296 29.4352C89.599 29.4352 88.6348 29.8877 87.9937 30.7911C87.3527 31.6944 87.0313 32.8001 87.0313 34.1063C87.0313 35.4124 87.3474 36.5712 87.9813 37.4831C88.6135 38.395 89.5635 38.851 90.8296 38.851C92.0957 38.851 93.0013 38.395 93.6513 37.4831V37.4814Z" fill="black"/>
<path d="M102.118 40.0544C101.147 39.4013 100.422 38.5528 99.9463 37.5055C99.4686 36.4598 99.2307 35.3336 99.2307 34.1286C99.2307 32.9235 99.4686 31.8231 99.9463 30.7757C100.424 29.7301 101.147 28.8799 102.118 28.2268C103.089 27.5737 104.293 27.248 105.733 27.248C107.52 27.248 108.933 27.7468 109.974 28.741C111.015 29.7369 111.638 30.9711 111.847 32.4453H109.221C109.065 31.5419 108.695 30.81 108.115 30.2478C107.534 29.6872 106.749 29.4061 105.76 29.4061C104.476 29.4061 103.514 29.8586 102.873 30.762C102.232 31.6654 101.91 32.7881 101.91 34.1269C101.91 35.4656 102.232 36.5867 102.873 37.4917C103.514 38.3951 104.476 38.8476 105.76 38.8476C106.749 38.8476 107.532 38.5717 108.115 38.0197C108.695 37.4677 109.065 36.7392 109.221 35.8359H111.847C111.64 37.3083 111.015 38.5442 109.974 39.5401C108.933 40.5361 107.52 41.0332 105.733 41.0332C104.293 41.0332 103.089 40.7075 102.118 40.0544Z" fill="black"/>
<path d="M117.647 29.6599V36.741C117.647 37.3598 117.677 37.8123 117.738 38.0969C117.798 38.3814 117.963 38.6077 118.231 38.774C118.499 38.942 118.947 39.0242 119.57 39.0242C120.003 39.0242 120.428 38.9745 120.845 38.8734V40.7058C120.724 40.7555 120.437 40.807 119.987 40.8567C119.536 40.9064 119.085 40.9321 118.634 40.9321C117.542 40.9321 116.727 40.7778 116.189 40.4676C115.651 40.1573 115.308 39.7562 115.161 39.2625C115.014 38.7688 114.941 38.1192 114.941 37.317L114.967 29.6582H112.495V27.5995H114.967V23.2558H117.647V27.5995H120.847V29.6582H117.647V29.6599Z" fill="black"/>
<path d="M123.109 24.7385C122.797 24.4368 122.64 24.0614 122.64 23.6089C122.64 23.1564 122.797 22.781 123.109 22.4793C123.422 22.1776 123.812 22.0267 124.279 22.0267C124.746 22.0267 125.137 22.181 125.45 22.4913C125.762 22.8015 125.918 23.1735 125.918 23.6089C125.918 24.0443 125.762 24.4163 125.45 24.7265C125.137 25.0368 124.746 25.1911 124.279 25.1911C123.812 25.1911 123.422 25.0402 123.109 24.7385ZM122.953 27.6011H125.632V40.8326H122.953V27.6011Z" fill="black"/>
<path d="M130.573 40.0544C129.601 39.4013 128.877 38.5528 128.401 37.5055C127.923 36.4598 127.685 35.3336 127.685 34.1286C127.685 32.9235 127.923 31.8231 128.401 30.7757C128.879 29.7301 129.601 28.8799 130.573 28.2268C131.544 27.5737 132.748 27.248 134.188 27.248C135.974 27.248 137.388 27.7468 138.429 28.741C139.469 29.7369 140.092 30.9711 140.302 32.4453H137.676C137.519 31.5419 137.15 30.81 136.569 30.2478C135.989 29.6872 135.204 29.4061 134.215 29.4061C132.931 29.4061 131.968 29.8586 131.327 30.762C130.686 31.6654 130.365 32.7881 130.365 34.1269C130.365 35.4656 130.686 36.5867 131.327 37.4917C131.968 38.3951 132.931 38.8476 134.215 38.8476C135.204 38.8476 135.987 38.5717 136.569 38.0197C137.15 37.4677 137.519 36.7392 137.676 35.8359H140.302C140.094 37.3083 139.469 38.5442 138.429 39.5401C137.388 40.5361 135.974 41.0332 134.188 41.0332C132.748 41.0332 131.544 40.7075 130.573 40.0544Z" fill="black"/>
<path d="M144.255 40.0303C143.283 39.3773 142.564 38.5287 142.095 37.4814C141.627 36.4358 141.394 35.3182 141.394 34.1302C141.394 32.9423 141.628 31.8247 142.095 30.7774C142.564 29.7318 143.287 28.8815 144.267 28.2284C145.247 27.5754 146.448 27.2497 147.87 27.2497C149.744 27.2497 151.233 27.8393 152.343 29.0204C153.453 30.1997 154.007 31.9121 154.007 34.1543V34.8828H144.019V35.0593C144.019 35.7296 144.175 36.3569 144.487 36.9432C144.8 37.5294 145.242 38.0025 145.814 38.3625C146.386 38.7224 147.044 38.9024 147.79 38.9024C148.605 38.9024 149.307 38.7053 149.896 38.3128C150.486 37.9202 150.91 37.3888 151.171 36.7186H153.824C153.478 37.9579 152.793 38.983 151.77 39.7938C150.747 40.6063 149.438 41.0108 147.842 41.0108C146.419 41.0108 145.223 40.6851 144.253 40.0321L144.255 40.0303ZM151.381 33.1C151.312 31.7442 150.96 30.7602 150.328 30.15C149.694 29.5398 148.858 29.2329 147.817 29.2329C146.707 29.2329 145.817 29.5843 145.152 30.2871C144.484 30.9899 144.132 31.9276 144.099 33.1H151.381Z" fill="black"/>
<path d="M161.847 39.4819C160.695 38.4517 160.013 37.1336 159.805 35.5274H163.914C164.088 36.1805 164.422 36.6862 164.916 37.0461C165.409 37.4061 166.029 37.5861 166.775 37.5861C167.624 37.5861 168.291 37.3718 168.778 36.945C169.263 36.5182 169.506 35.9697 169.506 35.3011C169.506 34.6326 169.254 34.067 168.751 33.6573C168.249 33.2476 167.599 33.0419 166.8 33.0419H165.212V30.0798H166.876C167.586 30.0798 168.155 29.8999 168.579 29.5399C169.003 29.1799 169.217 28.6914 169.217 28.0709C169.217 27.4503 168.991 26.9241 168.54 26.5401C168.089 26.1545 167.49 25.9625 166.745 25.9625C165.999 25.9625 165.436 26.1425 165.003 26.5024C164.569 26.8624 164.275 27.3612 164.118 27.9972H160.166C160.409 26.4904 161.053 25.2442 162.103 24.2552C163.152 23.2678 164.708 22.7742 166.771 22.7742C168.281 22.7742 169.515 23.0381 170.477 23.5644C171.44 24.0923 172.138 24.7489 172.571 25.5357C173.004 26.3224 173.221 27.1178 173.221 27.9217C173.221 28.7257 173.022 29.449 172.622 29.9924C172.223 30.5358 171.795 30.9386 171.335 31.1975C170.875 31.4563 170.593 31.5866 170.49 31.5866V31.7374C172.692 32.8088 173.516 33.203 172.962 32.9168C172.406 32.6322 172.345 32.7831 172.779 33.3693C173.212 33.9555 173.429 34.7338 173.429 35.704C173.429 36.6742 173.185 37.5364 172.701 38.3403C172.214 39.1443 171.473 39.7922 170.477 40.2859C169.479 40.7796 168.245 41.0264 166.771 41.0264C164.639 41.0264 162.996 40.5121 161.842 39.4819H161.847Z" fill="black"/>
<path d="M177.767 40.3115C176.735 39.835 175.908 39.1185 175.282 38.1654C174.657 37.2107 174.347 36.0399 174.347 34.6497C174.347 33.2595 174.593 32.1179 175.087 31.0209C175.581 29.9255 176.254 28.7411 177.103 27.4674L179.938 23.2249H183.866L178.795 30.606L178.873 30.6815L179.264 30.3558C179.663 29.9872 180.097 29.6993 180.564 29.4901C181.032 29.281 181.638 29.1765 182.384 29.1765C183.511 29.1765 184.481 29.4319 185.298 29.9427C186.113 30.4535 186.732 31.1477 187.157 32.0271C187.581 32.9064 187.794 33.8818 187.794 34.9514C187.794 36.2576 187.496 37.3701 186.898 38.2906C186.299 39.2111 185.497 39.8967 184.491 40.3493C183.486 40.8018 182.375 41.0263 181.162 41.0263C179.949 41.0263 178.798 40.7881 177.767 40.3115ZM183.151 37.0341C183.627 36.4307 183.866 35.7365 183.866 34.9497C183.866 34.1629 183.628 33.4687 183.151 32.8653C182.673 32.2619 181.959 31.9619 181.006 31.9619C180.052 31.9619 179.388 32.2585 178.912 32.8533C178.434 33.4481 178.196 34.1458 178.196 34.9497C178.196 35.7536 178.434 36.4102 178.912 37.0204C179.388 37.6323 180.086 37.9375 181.006 37.9375C181.926 37.9375 182.675 37.6358 183.151 37.0341Z" fill="black"/>
<path d="M190.211 38.9181C189.032 37.4114 188.442 35.411 188.442 32.9169V31.0588C188.442 28.5818 189.032 26.602 190.211 25.121C191.39 23.6399 193.194 22.8994 195.622 22.8994C198.049 22.8994 199.848 23.6399 201.018 25.121C202.188 26.602 202.774 28.5818 202.774 31.0588V32.9169C202.774 35.411 202.188 37.4114 201.018 38.9181C199.848 40.4249 198.049 41.1774 195.622 41.1774C193.194 41.1774 191.39 40.4249 190.211 38.9181ZM197.625 36.6332C198.024 35.8464 198.223 34.6825 198.223 33.1432V30.8325C198.223 29.3086 198.024 28.167 197.625 27.4059C197.225 26.6448 196.558 26.2626 195.622 26.2626C194.686 26.2626 194.013 26.6431 193.606 27.4059C193.198 28.167 192.995 29.3103 192.995 30.8325V33.1432C192.995 34.667 193.2 35.8258 193.606 36.6212C194.013 37.4165 194.686 37.8142 195.622 37.8142C196.558 37.8142 197.225 37.4217 197.625 36.6349V36.6332Z" fill="black"/>
<path d="M207.134 24.0546C205.554 24.0546 204.268 22.8136 204.268 21.288C204.268 19.7624 205.554 18.5214 207.134 18.5214C208.714 18.5214 210 19.7624 210 21.288C210 22.8136 208.714 24.0546 207.134 24.0546ZM207.134 20.1087C206.461 20.1087 205.914 20.6366 205.914 21.2863C205.914 21.936 206.461 22.4639 207.134 22.4639C207.807 22.4639 208.354 21.936 208.354 21.2863C208.354 20.6366 207.807 20.1087 207.134 20.1087Z" fill="black"/>
<path d="M133.961 48.1812L133.408 48.824L132.822 49.508L132.743 49.6023V52.9106H134.392V49.8251C134.367 49.8285 134.342 49.832 134.319 49.8354C134.3 49.8371 134.28 49.8388 134.261 49.8405C134.035 49.8559 133.806 49.8148 133.604 49.7137C133.6 49.7137 133.595 49.7137 133.591 49.7137V49.7651L134.147 51.2838L134.239 51.5358C134.312 51.541 134.367 51.5461 134.392 51.553L134.389 51.5804C134.389 51.5804 134.316 51.5615 134.259 51.6472C134.204 51.7329 134.108 51.7569 134.041 51.7569H133.112C133.043 51.7569 132.949 51.7329 132.893 51.6472C132.838 51.5615 132.764 51.5804 132.764 51.5804L132.76 51.553C132.783 51.5461 132.838 51.541 132.911 51.5358L133.004 51.2838L133.563 49.76V49.7137C133.497 49.7085 133.448 49.6708 133.448 49.6245C133.448 49.5748 133.506 49.5337 133.577 49.5337C133.648 49.5337 133.707 49.5748 133.707 49.6245C133.707 49.6314 133.707 49.6383 133.703 49.6451C133.703 49.6451 133.703 49.6468 133.703 49.6485C133.701 49.6554 133.698 49.6605 133.693 49.6674C133.693 49.6674 133.693 49.6691 133.691 49.6708C133.685 49.676 133.68 49.6811 133.675 49.6862C133.668 49.6914 133.659 49.6965 133.652 49.7C133.661 49.7034 133.668 49.7068 133.677 49.7102C133.677 49.7102 133.68 49.7102 133.68 49.712C133.705 49.7222 133.732 49.7325 133.758 49.7411C133.758 49.7411 133.76 49.7411 133.762 49.7411C133.787 49.7497 133.813 49.7565 133.84 49.7634C133.851 49.7668 133.863 49.7685 133.875 49.7702C133.883 49.7702 133.888 49.7737 133.895 49.7754C133.913 49.7788 133.932 49.7822 133.95 49.784C133.97 49.7874 133.991 49.7891 134.012 49.7908C134.103 49.7994 134.195 49.796 134.284 49.7822C134.296 49.7805 134.311 49.7788 134.323 49.7771C134.348 49.772 134.373 49.7668 134.396 49.7617V48.4058L134.323 48.3681L133.966 48.1812H133.961Z" fill="black"/>
<path d="M133.561 51.5136V49.8389L133.032 51.2822L132.94 51.5324C133.156 51.5204 133.488 51.5136 133.561 51.5136Z" fill="black"/>
<path d="M136.157 49.7651C136.157 49.7651 136.143 49.7617 136.138 49.7582C136.134 49.7582 136.129 49.7548 136.125 49.7548C136.122 49.7548 136.12 49.7531 136.116 49.7514C136.113 49.7514 136.109 49.7497 136.106 49.7479C136.106 49.7479 136.106 49.7479 136.104 49.7479C135.933 49.7017 135.751 49.7445 135.601 49.8319C135.582 49.8439 135.553 49.8611 135.529 49.8765C135.529 49.8919 135.529 49.9125 135.529 49.9365C135.529 49.9725 135.516 50.0033 135.498 50.0273C135.495 50.0325 135.49 50.0394 135.486 50.0428V50.0942C135.498 50.0959 135.511 50.0976 135.52 50.1011C135.534 50.1045 135.545 50.1096 135.553 50.1131C135.561 50.1182 135.566 50.1233 135.566 50.1285C135.566 50.1422 135.534 50.1559 135.486 50.1628V51.4158C135.522 51.4227 135.545 51.433 135.545 51.4449C135.545 51.4569 135.522 51.4672 135.486 51.4741V51.5341C135.536 51.5427 135.569 51.5564 135.569 51.5735C135.569 51.5907 135.536 51.6044 135.486 51.6129V51.6644C135.506 51.6678 135.518 51.6729 135.518 51.6781C135.518 51.6832 135.506 51.6884 135.486 51.6918V51.9832C135.527 51.99 135.555 52.0038 135.555 52.0175C135.555 52.0312 135.529 52.0449 135.486 52.0518V52.0946C135.506 52.0998 135.518 52.1049 135.518 52.1118C135.518 52.1186 135.506 52.1238 135.486 52.1289V52.1752C135.513 52.1906 135.53 52.2112 135.53 52.2352C135.53 52.2592 135.513 52.2797 135.486 52.2952V52.3449C135.507 52.3689 135.53 52.3929 135.548 52.4032C135.589 52.4254 135.562 52.4597 135.53 52.4666C135.55 52.4906 135.596 52.5266 135.712 52.542C135.889 52.566 136.029 52.6226 136.022 52.6586C136.019 52.6757 136.012 52.7083 135.942 52.7357C135.873 52.7631 135.74 52.7871 135.486 52.7871H135.298C134.788 52.7871 134.767 52.6946 134.762 52.6586C134.754 52.6226 134.895 52.5643 135.072 52.542C135.188 52.5266 135.234 52.4906 135.253 52.4666C135.221 52.4597 135.193 52.4272 135.236 52.4032C135.255 52.3929 135.278 52.3689 135.298 52.3449V52.2952C135.271 52.2797 135.253 52.2592 135.253 52.2352C135.253 52.2112 135.271 52.1889 135.298 52.1752V52.1289C135.278 52.1238 135.266 52.1186 135.266 52.1118C135.266 52.1049 135.278 52.0998 135.298 52.0946V52.0518C135.257 52.0449 135.229 52.0312 135.229 52.0175C135.229 52.0038 135.255 51.9918 135.298 51.9832V51.6918C135.278 51.6884 135.266 51.6832 135.266 51.6781C135.266 51.6729 135.278 51.6678 135.298 51.6644V51.6129C135.248 51.6044 135.214 51.5907 135.214 51.5735C135.214 51.5564 135.248 51.5427 135.298 51.5341V51.4741C135.262 51.4672 135.239 51.4569 135.239 51.4449C135.239 51.433 135.262 51.4227 135.298 51.4158V50.1628C135.25 50.1559 135.218 50.1422 135.218 50.1285C135.218 50.1251 135.22 50.1216 135.223 50.1182C135.23 50.1113 135.248 50.1045 135.269 50.0993C135.278 50.0976 135.287 50.0959 135.298 50.0942V50.0428C135.298 50.0428 135.285 50.0291 135.28 50.0205C135.28 50.0205 135.28 50.0171 135.278 50.0154C135.275 50.0085 135.269 50.0016 135.268 49.9948C135.268 49.9948 135.268 49.9931 135.268 49.9914C135.264 49.9828 135.262 49.9759 135.26 49.9674C135.26 49.9622 135.26 49.9554 135.259 49.9485C135.259 49.9434 135.259 49.9399 135.259 49.9348C135.259 49.9091 135.259 49.8902 135.259 49.8748C135.236 49.8594 135.211 49.8439 135.191 49.8337C135.189 49.8337 135.188 49.8319 135.186 49.8302C135.15 49.8097 135.115 49.7925 135.076 49.7771C134.952 49.7274 134.813 49.7102 134.683 49.7462C134.678 49.7462 134.673 49.7497 134.667 49.7514C134.646 49.7582 134.623 49.7651 134.603 49.7719C134.598 49.7737 134.593 49.7754 134.586 49.7771V52.9071H136.221V49.7822C136.211 49.7788 136.198 49.7754 136.187 49.7719C136.18 49.7702 136.171 49.7668 136.163 49.7634L136.157 49.7651Z" fill="black"/>
<path d="M135.731 49.1035L134.66 48.5464L134.58 48.5053V49.7C134.602 49.6897 134.628 49.6795 134.648 49.6709C134.651 49.6709 134.657 49.6675 134.66 49.6657C134.66 49.6657 134.664 49.6657 134.667 49.664C134.68 49.6606 134.69 49.6555 134.703 49.652C134.708 49.6503 134.715 49.6486 134.721 49.6469C134.729 49.6452 134.737 49.6435 134.745 49.6417C134.753 49.6417 134.76 49.6383 134.767 49.6383C134.774 49.6383 134.781 49.6349 134.788 49.6349C134.795 49.6349 134.804 49.6332 134.811 49.6315C134.818 49.6315 134.824 49.6315 134.831 49.6298C134.84 49.6298 134.847 49.6298 134.856 49.628C134.863 49.628 134.868 49.628 134.875 49.628C134.884 49.628 134.891 49.628 134.9 49.628C134.907 49.628 134.912 49.628 134.919 49.628C134.927 49.628 134.935 49.628 134.943 49.628C134.95 49.628 134.957 49.628 134.964 49.628C134.971 49.628 134.978 49.628 134.985 49.628C134.994 49.628 135.003 49.628 135.01 49.6298C135.015 49.6298 135.021 49.6297 135.026 49.6315C135.038 49.6315 135.049 49.6349 135.062 49.6366C135.067 49.6366 135.074 49.6383 135.079 49.64C135.092 49.6418 135.104 49.6452 135.118 49.6469C135.122 49.6469 135.125 49.6469 135.129 49.6486C135.145 49.652 135.161 49.6572 135.177 49.6606C135.181 49.6606 135.184 49.6623 135.189 49.664C135.202 49.6675 135.216 49.6709 135.228 49.676C135.232 49.676 135.236 49.6777 135.239 49.6795C135.253 49.6846 135.268 49.6897 135.282 49.6949C135.282 49.6949 135.283 49.6949 135.285 49.6949C135.301 49.7017 135.319 49.7069 135.335 49.7137C135.337 49.7137 135.34 49.7155 135.342 49.7172V49.6486C135.319 49.6332 135.291 49.6092 135.269 49.5818C135.243 49.5475 135.223 49.508 135.232 49.4618C135.236 49.4429 135.241 49.4258 135.244 49.4103C135.248 49.3983 135.253 49.3863 135.259 49.3761C135.259 49.3761 135.259 49.3743 135.259 49.3726C135.264 49.3606 135.269 49.3503 135.275 49.3401C135.287 49.3195 135.299 49.2989 135.312 49.2783C135.312 49.2783 135.312 49.2784 135.312 49.2766C135.315 49.2715 135.319 49.2663 135.323 49.2612C135.326 49.2543 135.33 49.2475 135.335 49.2406C135.335 49.2389 135.337 49.2372 135.339 49.2338C135.339 49.2304 135.342 49.2286 135.342 49.2252C135.342 49.2252 135.342 49.2218 135.344 49.2201C135.347 49.2149 135.349 49.2081 135.351 49.2029C135.351 49.2012 135.351 49.1995 135.353 49.1978C135.355 49.1926 135.358 49.1858 135.36 49.1806C135.36 49.1789 135.36 49.1755 135.362 49.1738C135.363 49.1669 135.367 49.1618 135.369 49.1549C135.369 49.1549 135.369 49.1532 135.369 49.1515C135.371 49.1429 135.374 49.1361 135.376 49.1275V49.1104C135.376 49.1104 135.376 49.1138 135.376 49.1172C135.376 49.1172 135.376 49.1172 135.376 49.1189C135.376 49.1189 135.376 49.1189 135.376 49.1172C135.376 49.1155 135.376 49.1138 135.376 49.1121V49.1292C135.381 49.1481 135.386 49.1652 135.392 49.1806C135.397 49.1944 135.402 49.2064 135.408 49.2184C135.408 49.2184 135.408 49.2218 135.41 49.2218C135.415 49.2321 135.42 49.2441 135.426 49.2526C135.426 49.2526 135.426 49.2561 135.427 49.2561C135.434 49.2681 135.44 49.2783 135.447 49.2886C135.452 49.2955 135.456 49.3023 135.459 49.3109C135.459 49.3126 135.463 49.3161 135.463 49.3178C135.468 49.3263 135.474 49.3366 135.479 49.3452C135.479 49.3452 135.479 49.3486 135.481 49.3503C135.486 49.3606 135.491 49.3692 135.495 49.3795C135.495 49.3812 135.495 49.3829 135.497 49.3846C135.502 49.3949 135.505 49.4069 135.509 49.4189C135.509 49.4206 135.509 49.4223 135.509 49.4241C135.513 49.4361 135.516 49.4498 135.52 49.4635C135.52 49.4669 135.52 49.4703 135.52 49.4738C135.52 49.4806 135.52 49.4875 135.52 49.4943C135.52 49.4995 135.52 49.5029 135.518 49.508C135.518 49.5132 135.518 49.5183 135.514 49.5235C135.498 49.58 135.447 49.6246 135.408 49.652V49.7206C135.41 49.7206 135.413 49.7189 135.415 49.7172C135.431 49.7103 135.449 49.7035 135.465 49.6983C135.465 49.6983 135.466 49.6983 135.468 49.6983C135.482 49.6932 135.498 49.688 135.514 49.6829C135.518 49.6829 135.52 49.6812 135.523 49.6795C135.537 49.6743 135.552 49.6709 135.566 49.6675C135.569 49.6675 135.573 49.6657 135.575 49.664C135.591 49.6589 135.608 49.6555 135.626 49.652C135.642 49.6486 135.658 49.6452 135.674 49.6417C135.681 49.6417 135.687 49.64 135.694 49.6383C135.704 49.6366 135.717 49.6349 135.727 49.6332C135.733 49.6332 135.738 49.6332 135.743 49.6315C135.752 49.6315 135.761 49.6298 135.772 49.628C135.779 49.628 135.786 49.628 135.791 49.628C135.8 49.628 135.807 49.628 135.816 49.628C135.823 49.628 135.83 49.628 135.839 49.628C135.846 49.628 135.854 49.628 135.862 49.628C135.869 49.628 135.878 49.628 135.885 49.628C135.893 49.628 135.9 49.628 135.907 49.628C135.916 49.628 135.923 49.628 135.932 49.6298C135.939 49.6298 135.946 49.6297 135.953 49.6332C135.962 49.6332 135.969 49.6349 135.978 49.6366C135.985 49.6366 135.992 49.64 135.999 49.64C136.006 49.64 136.015 49.6435 136.022 49.6452C136.031 49.6469 136.04 49.6503 136.049 49.652C136.054 49.652 136.061 49.6555 136.067 49.6572C136.081 49.6623 136.095 49.6657 136.111 49.6726C136.118 49.676 136.125 49.6795 136.134 49.6812C136.134 49.6812 136.136 49.6812 136.138 49.6812C136.155 49.688 136.175 49.6966 136.191 49.7035C136.191 49.7035 136.194 49.7035 136.196 49.7052V48.5704L136.138 48.6355L135.713 49.1035H135.731Z" fill="black"/>
<path d="M137.191 51.5135V49.8456L136.663 51.2821L136.571 51.5323C136.788 51.5203 137.118 51.5152 137.189 51.5135H137.191Z" fill="black"/>
<path d="M137.748 51.2838L137.219 49.8405V51.5152C137.292 51.5152 137.622 51.5221 137.839 51.5341L137.747 51.2838H137.748Z" fill="black"/>
<path d="M137.059 46.2374L135.475 47.9824L133.701 47.0362L132.741 48.1298V48.872L133.82 47.6327L135.608 48.572L137.478 46.4911L137.894 46.719L136.457 48.3029L136.393 48.3732H136.406V49.7634C136.424 49.7668 136.44 49.7702 136.457 49.7737C136.582 49.7977 136.709 49.8011 136.836 49.7839C136.873 49.7788 136.908 49.7719 136.946 49.7634C136.999 49.7497 137.052 49.7325 137.104 49.7102C137.114 49.7051 137.123 49.7017 137.134 49.6965C137.098 49.6811 137.075 49.6519 137.075 49.6211C137.075 49.5714 137.134 49.5302 137.205 49.5302C137.276 49.5302 137.335 49.5714 137.335 49.6211C137.335 49.6674 137.283 49.7068 137.219 49.7102V49.7565L137.778 51.2804L137.871 51.5324C137.942 51.5375 137.997 51.5426 138.022 51.5495L138.018 51.5769C138.018 51.5769 137.945 51.5581 137.889 51.6438C137.833 51.7295 137.739 51.7535 137.67 51.7535H136.741C136.672 51.7535 136.578 51.7295 136.523 51.6438C136.482 51.5804 136.431 51.5735 136.406 51.5752V52.9071H138.039V45.274L136.523 45.8911L137.057 46.2339L137.059 46.2374Z" fill="black"/>
<path d="M133.589 49.8456V51.5135C133.662 51.5135 133.991 51.5203 134.207 51.5323L134.115 51.2821L133.588 49.8456H133.589Z" fill="black"/>
<path d="M137.191 49.7119C137.191 49.7119 137.182 49.7119 137.178 49.7119C136.956 49.8234 136.704 49.8611 136.457 49.8337C136.439 49.8319 136.424 49.8302 136.406 49.8268V51.5478C136.434 51.5427 136.482 51.5392 136.542 51.5341L136.635 51.2821L137.191 49.7634V49.7119Z" fill="black"/>
<path d="M114.925 47.7937H113.893V52.8727H116.237V51.9557H114.925V47.7937Z" fill="black"/>
<path d="M117.375 52.8727H119.785V51.9557H118.407V50.6872H119.503V49.7701H118.407V48.7091H119.785V47.7937H117.375V52.8727Z" fill="black"/>
<path d="M125.813 47.7937L124.949 52.8727H125.925L126.071 51.9214H126.779L126.923 52.8727H127.959L127.094 47.7937H125.815H125.813ZM126.197 51.0403L126.421 49.5027L126.648 51.0403H126.197Z" fill="black"/>
<path d="M130.125 47.7937H129.095V52.8727H131.439V51.9557H130.125V47.7937Z" fill="black"/>
<path d="M122.322 50.1422V50.9392L122.788 50.9427C122.782 51.0387 122.786 51.1364 122.788 51.2289C122.791 51.3266 122.795 51.4175 122.788 51.51C122.772 51.7432 122.685 51.9232 122.551 51.9917C122.516 52.0106 122.473 52.0191 122.431 52.0191C122.346 52.0191 122.262 51.9814 122.207 51.918C122.097 51.7912 122.088 51.5923 122.088 51.3815L122.093 49.1651C122.093 49.0348 122.093 48.8737 122.164 48.7606C122.214 48.68 122.301 48.6268 122.392 48.6234C122.395 48.6234 122.399 48.6234 122.402 48.6234C122.488 48.6234 122.575 48.668 122.628 48.74C122.72 48.8651 122.713 49.04 122.708 49.2251C122.704 49.3279 122.701 49.4359 122.713 49.5388L122.724 49.6193H123.768L123.773 49.5319C123.786 49.3125 123.798 49.064 123.764 48.824C123.725 48.5514 123.628 48.32 123.482 48.1537C123.28 47.924 122.969 47.7921 122.557 47.7612C122.498 47.7578 122.441 47.7543 122.386 47.7543C122.127 47.7543 121.894 47.8023 121.696 47.8949C121.458 48.0063 121.264 48.1897 121.154 48.4091C120.976 48.7588 120.941 49.1805 120.93 49.5096C120.923 49.7325 120.93 49.957 120.936 50.1747C120.941 50.3341 120.944 50.5004 120.944 50.6615C120.944 50.7472 120.943 50.833 120.941 50.9169C120.936 51.1621 120.928 51.4158 120.962 51.666C120.998 51.9454 121.102 52.3345 121.392 52.5968C121.561 52.7494 121.79 52.8522 122.051 52.8916C122.124 52.9036 122.196 52.9088 122.266 52.9088C122.422 52.9088 122.564 52.8796 122.69 52.8248C122.807 52.7717 122.91 52.6945 122.988 52.6002L123.022 52.8368L123.814 52.8248V50.1404H122.326L122.322 50.1422Z" fill="black"/>
<path d="M141.101 49.8147C140.591 49.3879 140.428 49.1445 140.428 48.8154C140.428 48.4863 140.579 48.4485 140.721 48.4485C140.863 48.4485 141.014 48.4777 141.014 48.8291V49.2028H142.038V48.8788C142.038 47.9874 141.568 47.4972 140.714 47.4972C139.86 47.4972 139.359 47.996 139.359 48.8651C139.359 49.4907 139.609 49.9244 140.318 50.521C140.835 50.9529 140.984 51.1895 140.984 51.5717C140.984 51.93 140.824 51.9608 140.675 51.9608C140.49 51.9608 140.366 51.8974 140.366 51.5872V51.126H139.341V51.5289C139.341 52.4202 139.817 52.9105 140.682 52.9105C141.547 52.9105 142.053 52.4014 142.053 51.5134C142.053 50.8432 141.813 50.413 141.101 49.8147Z" fill="black"/>
<path d="M144.59 47.4972C143.715 47.4972 143.212 48.0012 143.212 48.8788V51.5272C143.212 52.4048 143.715 52.9088 144.59 52.9088C145.466 52.9088 145.968 52.4048 145.968 51.5272V48.8788C145.968 48.0012 145.466 47.4972 144.59 47.4972ZM144.898 51.5769C144.898 51.9128 144.75 51.9574 144.589 51.9574C144.427 51.9574 144.28 51.9111 144.28 51.5769V48.8274C144.28 48.4914 144.427 48.4468 144.589 48.4468C144.75 48.4468 144.898 48.4931 144.898 48.8274V51.5769Z" fill="black"/>
<path d="M147.126 52.8369H148.197V50.6428H149.264V49.6914H148.197V48.5189H149.559V47.5693H147.126V52.8369Z" fill="black"/>
<path d="M150.718 47.5693V48.5189H151.583V52.8369H152.652V48.5189H153.519V47.5693H150.718Z" fill="black"/>
<path d="M79.5323 51.0302C79.5323 51.9661 78.8593 52.5884 77.9377 52.5884C77.492 52.5884 77.0978 52.4221 76.8367 52.0947V53.67H76.265V49.5098H76.8119V49.9932C77.0676 49.6538 77.4725 49.4823 77.9377 49.4823C78.8611 49.4823 79.5323 50.1029 79.5323 51.0337V51.0302ZM78.9552 51.0302C78.9552 50.3874 78.4971 49.9606 77.8898 49.9606C77.2825 49.9606 76.8296 50.3857 76.8296 51.0302C76.8296 51.6747 77.2878 52.105 77.8898 52.105C78.4917 52.105 78.9552 51.6799 78.9552 51.0302Z" fill="black"/>
<path d="M80.0315 51.0302C80.0315 50.1217 80.7275 49.4789 81.674 49.4789C82.6205 49.4789 83.3113 50.1234 83.3113 51.0302C83.3113 51.937 82.6205 52.5884 81.674 52.5884C80.7275 52.5884 80.0315 51.9387 80.0315 51.0302ZM82.7341 51.0302C82.7341 50.3805 82.2813 49.9606 81.674 49.9606C81.0667 49.9606 80.6086 50.3805 80.6086 51.0302C80.6086 51.6799 81.0667 52.105 81.674 52.105C82.2813 52.105 82.7341 51.6799 82.7341 51.0302Z" fill="black"/>
<path d="M88.7875 49.5063L87.6084 52.5523H87.0615L86.1505 50.2417L85.2271 52.5523H84.6802L83.5082 49.5063H84.0498L84.9661 51.9318L85.9179 49.5063H86.4009L87.3349 51.9421L88.2761 49.5063H88.7875Z" fill="black"/>
<path d="M92.1136 51.2138H89.5547C89.6258 51.7486 90.0733 52.1051 90.6983 52.1051C91.0677 52.1051 91.3767 51.9851 91.6093 51.7366L91.9254 52.0931C91.6395 52.4154 91.2044 52.5868 90.6806 52.5868C89.6631 52.5868 88.9847 51.9372 88.9847 51.0287C88.9847 50.1202 89.6577 49.4773 90.5687 49.4773C91.4797 49.4773 92.1278 50.1099 92.1278 51.0458C92.1278 51.0921 92.1225 51.1606 92.1154 51.2121L92.1136 51.2138ZM89.5547 50.8178H91.5791C91.5187 50.307 91.121 49.9436 90.5669 49.9436C90.0129 49.9436 89.6151 50.3001 89.5547 50.8178Z" fill="black"/>
<path d="M94.6139 49.4773V50.0122C94.5659 50.007 94.5251 50.007 94.4825 50.007C93.8698 50.007 93.4881 50.3687 93.4881 51.0355V52.5525H92.9163V49.5065H93.4632V50.0173C93.6656 49.6608 94.0581 49.4773 94.6121 49.4773H94.6139Z" fill="black"/>
<path d="M98.1261 51.2138H95.5655C95.6365 51.7486 96.084 52.1051 96.7091 52.1051C97.0784 52.1051 97.3874 51.9851 97.62 51.7366L97.9361 52.0931C97.6502 52.4154 97.2152 52.5868 96.6913 52.5868C95.6738 52.5868 94.9955 51.9372 94.9955 51.0287C94.9955 50.1202 95.6685 49.4773 96.5794 49.4773C97.4904 49.4773 98.1385 50.1099 98.1385 51.0458C98.1385 51.0921 98.1332 51.1606 98.1261 51.2121V51.2138ZM95.5655 50.8178H97.5898C97.5295 50.307 97.1317 49.9436 96.5777 49.9436C96.0236 49.9436 95.6259 50.3001 95.5655 50.8178Z" fill="black"/>
<path d="M101.905 48.2894V52.5525H101.358V52.0691C101.102 52.4136 100.698 52.5867 100.232 52.5867C99.3089 52.5867 98.6377 51.9611 98.6377 51.0286C98.6377 50.0961 99.3107 49.4773 100.232 49.4773C100.678 49.4773 101.072 49.6384 101.333 49.9658V48.2877H101.905V48.2894ZM101.34 51.0303C101.34 50.3806 100.882 49.9607 100.28 49.9607C99.6783 49.9607 99.2148 50.3806 99.2148 51.0303C99.2148 51.68 99.6729 52.1051 100.28 52.1051C100.888 52.1051 101.34 51.68 101.34 51.0303Z" fill="black"/>
<path d="M107.857 51.0304C107.857 51.9612 107.184 52.5886 106.263 52.5886C105.799 52.5886 105.394 52.4154 105.137 52.0709V52.5543H104.59V48.2912H105.162V49.9693C105.425 49.6419 105.817 49.4808 106.263 49.4808C107.186 49.4808 107.857 50.1013 107.857 51.0321V51.0304ZM107.28 51.0304C107.28 50.3807 106.822 49.9608 106.215 49.9608C105.607 49.9608 105.155 50.3807 105.155 51.0304C105.155 51.6801 105.613 52.1052 106.215 52.1052C106.817 52.1052 107.28 51.6801 107.28 51.0304Z" fill="black"/>
<path d="M111.35 49.5063L109.82 52.8557C109.539 53.5003 109.177 53.7008 108.694 53.7008C108.39 53.7008 108.081 53.6031 107.884 53.4197L108.127 53.0066C108.282 53.1506 108.479 53.2311 108.692 53.2311C108.965 53.2311 109.138 53.1112 109.294 52.7598L109.395 52.5472L108.003 49.508H108.598L109.699 51.9438L110.787 49.508H111.347L111.35 49.5063Z" fill="black"/>
<defs>
<linearGradient id="paint0_linear_10526_12" x1="19.3958" y1="47.0543" x2="32.9002" y2="22.8207" gradientUnits="userSpaceOnUse">
<stop stop-color="#001D7F"/>
<stop offset="0.08" stop-color="#043A99"/>
<stop offset="0.2" stop-color="#095DB8"/>
<stop offset="0.33" stop-color="#0D7AD2"/>
<stop offset="0.46" stop-color="#1090E5"/>
<stop offset="0.61" stop-color="#13A0F4"/>
<stop offset="0.77" stop-color="#14AAFC"/>
<stop offset="1" stop-color="#15ADFF"/>
</linearGradient>
<linearGradient id="paint1_linear_10526_12" x1="40.7297" y1="24.8967" x2="27.2231" y2="49.1303" gradientUnits="userSpaceOnUse">
<stop stop-color="#001D7F"/>
<stop offset="0.08" stop-color="#043A99"/>
<stop offset="0.2" stop-color="#095DB8"/>
<stop offset="0.33" stop-color="#0D7AD2"/>
<stop offset="0.46" stop-color="#1090E5"/>
<stop offset="0.61" stop-color="#13A0F4"/>
<stop offset="0.77" stop-color="#14AAFC"/>
<stop offset="1" stop-color="#15ADFF"/>
</linearGradient>
<linearGradient id="paint2_linear_10526_12" x1="54.128" y1="45.6924" x2="7.13487" y2="45.6924" gradientUnits="userSpaceOnUse">
<stop stop-color="#005CBF"/>
<stop offset="1" stop-color="#15ADFF"/>
</linearGradient>
<linearGradient id="paint3_linear_10526_12" x1="5.99519" y1="26.2586" x2="52.9907" y2="26.2586" gradientUnits="userSpaceOnUse">
<stop stop-color="#005CBF"/>
<stop offset="1" stop-color="#15ADFF"/>
</linearGradient>
</defs>
</svg>
